VAIO - Spark a Trend.m2ts

80
General
ID                                       : 0 (0x0)
Complete name                            : H:VideosMiscDownloadsVAIO - Spark a Trend (Shopfront).m2ts
Format                                   : BDAV
Format/Info                              : Blu-ray Video
File size                                : 53.0 MiB
Duration                                 : 28s 481ms
Overall bit rate mode                    : Variable
Overall bit rate                         : 15.6 Mbps
Maximum Overall bit rate                 : 18.0 Mbps

Video
ID                                       : 4113 (0x1011)
Menu ID                                  : 1 (0x1)
Format                                   : AVC
Format/Info                              : Advanced Video Codec
Format profile                           : High@L4.0
Format settings, CABAC                   : Yes
Format settings, ReFrames                : 2 frames
Codec ID                                 : 27
Duration                                 : 27s 80ms
Bit rate mode                            : Variable
Bit rate                                 : 14.8 Mbps
Maximum bit rate                         : 22.0 Mbps
Width                                    : 1 920 pixels
Height                                   : 1 080 pixels
Display aspect ratio                     : 16:9
Frame rate                               : 25.000 fps
Color space                              : YUV
Chroma subsampling                       : 4:2:0
Bit depth                                : 8 bits
Scan type                                : Interlaced
Scan order                               : Top Field First
Bits/(Pixel*Frame)                       : 0.285
Stream size                              : 47.7 MiB (90%)

Audio
ID                                       : 4352 (0x1100)
Menu ID                                  : 1 (0x1)
Format                                   : AC-3
Format/Info                              : Audio Coding 3
Mode extension                           : CM (complete main)
Format settings, Endianness              : Big
Codec ID                                 : 129
Duration                                 : 27s 40ms
Bit rate mode                            : Constant
Bit rate                                 : 192 Kbps
Channel(s)                               : 2 channels
Channel positions                        : Front: L R
Sampling rate                            : 48.0 KHz
Bit depth                                : 16 bits
Compression mode                         : Lossy
Delay relative to video                  : -40ms
Stream size                              : 634 KiB (1%)

